# Blender v2.81 (sub 16) OBJ File: ''
# www.blender.org
mtllib sliderElement.mtl
o obj_0.001
v 1.000000 0.500000 0.500000
v 1.000000 -0.500000 0.500000
v 1.000000 -0.500000 -0.500000
v 1.000000 0.500000 -0.500000
v -1.000000 0.500000 -0.500000
v -1.000000 -0.500000 -0.500000
v -1.000000 -0.500000 0.500000
v -1.000000 0.500000 0.500000
vn 0.5773 0.5773 0.5773
vn 0.5773 -0.5773 0.5773
vn 0.5773 -0.5773 -0.5773
vn 0.5773 0.5773 -0.5773
vn -0.5773 0.5773 -0.5773
vn -0.5773 -0.5773 -0.5773
vn -0.5773 -0.5773 0.5773
vn -0.5773 0.5773 0.5773
usemtl color_10988977
s 1
f 1//1 2//2 3//3
f 1//1 3//3 4//4
f 5//5 6//6 7//7
f 5//5 7//7 8//8
f 4//4 5//5 8//8
f 4//4 8//8 1//1
f 2//2 7//7 6//6
f 2//2 6//6 3//3
f 8//8 7//7 2//2
f 8//8 2//2 1//1
f 4//4 3//3 6//6
f 4//4 6//6 5//5
