# Blender v2.81 (sub 16) OBJ File: ''
# www.blender.org
mtllib untitled.mtl
o obj_0
v 3.490467 -6.506332 0.005000
v 3.490467 -6.506332 -0.005000
v 3.490467 3.493668 -0.004999
v 3.490467 3.493668 0.005002
v -6.509533 3.493668 -0.004999
v 3.019067 3.012668 -0.004999
v -6.509533 3.012668 -0.004999
v -6.509533 3.493668 0.005002
v -6.509533 3.012668 0.005002
v 3.019067 3.012668 0.005002
v 3.019067 -6.506332 -0.005000
v 3.019067 -6.506332 0.005000
vn 0.5773 -0.5773 0.5773
vn 0.5773 -0.5773 -0.5773
vn 0.5773 0.5773 -0.5773
vn 0.5773 0.5773 0.5773
vn -0.5773 0.5773 -0.5773
vn -0.3015 -0.3015 -0.9045
vn -0.5773 -0.5773 -0.5773
vn -0.5773 0.5773 0.5773
vn -0.5773 -0.5773 0.5773
vn -0.3015 -0.3015 0.9045
usemtl (null)
s 1
f 1//1 2//2 3//3
f 1//1 3//3 4//4
f 5//5 6//6 7//7
f 8//8 9//9 10//10
f 2//2 11//7 6//6
f 5//5 3//3 6//6
f 2//2 6//6 3//3
f 5//5 8//8 3//3
f 4//4 3//3 8//8
f 4//4 8//8 10//10
f 12//9 1//1 10//10
f 4//4 10//10 1//1
f 11//7 12//9 10//10
f 11//7 10//10 6//6
f 9//9 7//7 6//6
f 9//9 6//6 10//10
f 11//7 2//2 1//1
f 11//7 1//1 12//9
f 5//5 7//7 9//9
f 5//5 9//9 8//8
