# Blender v2.81 (sub 16) OBJ File: ''
# www.blender.org
mtllib meshCylinder.mtl
o obj_0
v 0.000002 0.500000 -0.500000
v 0.000002 -0.500000 -0.500000
v -0.154999 0.476000 -0.500000
v -0.293999 0.405000 -0.500000
v 0.155003 0.476000 -0.500000
v 0.294003 0.405000 -0.500000
v 0.405003 0.294000 -0.500000
v 0.476002 0.155000 -0.500000
v -0.154999 -0.476000 -0.500000
v -0.293999 -0.405000 -0.500000
v -0.404999 -0.294000 -0.500000
v -0.475998 -0.155000 -0.500000
v -0.499998 0.000000 -0.500000
v -0.475998 0.155000 -0.500000
v -0.404999 0.294000 -0.500000
v 0.500002 0.000000 -0.500000
v 0.476002 -0.155000 -0.500000
v 0.405003 -0.294000 -0.500000
v 0.294003 -0.405000 -0.500000
v 0.155003 -0.476000 -0.500000
v 0.405003 -0.294000 0.500000
v 0.294003 -0.405000 0.500000
v 0.294003 0.405000 0.500000
v -0.293999 0.405000 0.500000
v 0.500002 -0.000000 0.500000
v -0.154999 0.476000 0.500000
v -0.404999 0.294000 0.500000
v 0.000002 0.500000 0.500000
v 0.476002 0.155000 0.500000
v 0.405003 0.294000 0.500000
v 0.155003 0.476000 0.500000
v 0.476002 -0.155000 0.500000
v 0.155003 -0.476000 0.500000
v 0.000002 -0.500000 0.500000
v -0.475998 0.155000 0.500000
v -0.499998 -0.000000 0.500000
v -0.475998 -0.155000 0.500000
v -0.404999 -0.294000 0.500000
v -0.293999 -0.405000 0.500000
v -0.154999 -0.476000 0.500000
vn 0.0000 0.7385 -0.6742
vn 0.0000 -0.7385 -0.6742
vn -0.2277 0.7036 -0.6731
vn -0.4347 0.5977 -0.6736
vn 0.2277 0.7036 -0.6731
vn 0.4347 0.5977 -0.6736
vn 0.5977 0.4347 -0.6736
vn 0.7036 0.2277 -0.6731
vn -0.2277 -0.7036 -0.6731
vn -0.4347 -0.5977 -0.6736
vn -0.5977 -0.4347 -0.6736
vn -0.7036 -0.2277 -0.6731
vn -0.7385 0.0000 -0.6742
vn -0.7036 0.2277 -0.6731
vn -0.5977 0.4347 -0.6736
vn 0.7385 0.0000 -0.6742
vn 0.7036 -0.2277 -0.6731
vn 0.5977 -0.4347 -0.6736
vn 0.4347 -0.5977 -0.6736
vn 0.2277 -0.7036 -0.6731
vn 0.5977 -0.4347 0.6736
vn 0.4347 -0.5977 0.6736
vn 0.4347 0.5977 0.6736
vn -0.4347 0.5977 0.6736
vn 0.7385 0.0000 0.6742
vn -0.2277 0.7036 0.6731
vn -0.5977 0.4347 0.6736
vn 0.0000 0.7385 0.6742
vn 0.7036 0.2277 0.6731
vn 0.5977 0.4347 0.6736
vn 0.2277 0.7036 0.6731
vn 0.7036 -0.2277 0.6731
vn 0.2277 -0.7036 0.6731
vn 0.0000 -0.7385 0.6742
vn -0.7036 0.2277 0.6731
vn -0.7385 0.0000 0.6742
vn -0.7036 -0.2277 0.6731
vn -0.5977 -0.4347 0.6736
vn -0.4347 -0.5977 0.6736
vn -0.2277 -0.7036 0.6731
usemtl color_16089887
s 1
f 1//1 2//2 3//3
f 4//4 3//3 2//2
f 5//5 2//2 1//1
f 6//6 2//2 5//5
f 7//7 2//2 6//6
f 8//8 2//2 7//7
f 2//2 9//9 10//10
f 2//2 10//10 11//11
f 2//2 11//11 12//12
f 2//2 12//12 13//13
f 2//2 13//13 14//14
f 2//2 14//14 15//15
f 15//15 4//4 2//2
f 2//2 8//8 16//16
f 2//2 16//16 17//17
f 2//2 17//17 18//18
f 2//2 18//18 19//19
f 2//2 19//19 20//20
f 18//18 21//21 22//22
f 23//23 7//7 6//6
f 24//24 25//25 26//26
f 27//27 25//25 24//24
f 26//26 25//25 28//28
f 28//28 29//29 30//30
f 28//28 30//30 23//23
f 28//28 23//23 31//31
f 31//31 23//23 5//5
f 6//6 5//5 23//23
f 32//32 21//21 18//18
f 20//20 33//33 2//2
f 34//34 2//2 33//33
f 5//5 1//1 28//28
f 5//5 28//28 31//31
f 16//16 25//25 32//32
f 15//15 14//14 35//35
f 22//22 33//33 19//19
f 20//20 19//19 33//33
f 36//36 35//35 13//13
f 14//14 13//13 35//35
f 26//26 28//28 3//3
f 1//1 3//3 28//28
f 19//19 18//18 22//22
f 29//29 28//28 25//25
f 25//25 27//27 35//35
f 25//25 35//35 36//36
f 25//25 36//36 37//37
f 25//25 37//37 38//38
f 25//25 38//38 39//39
f 25//25 39//39 40//40
f 25//25 40//40 34//34
f 25//25 34//34 33//33
f 25//25 33//33 22//22
f 25//25 22//22 21//21
f 25//25 21//21 32//32
f 29//29 25//25 16//16
f 32//32 18//18 17//17
f 24//24 26//26 4//4
f 3//3 4//4 26//26
f 12//12 37//37 13//13
f 36//36 13//13 37//37
f 7//7 30//30 29//29
f 9//9 40//40 39//39
f 38//38 37//37 11//11
f 12//12 11//11 37//37
f 4//4 15//15 27//27
f 4//4 27//27 24//24
f 17//17 16//16 32//32
f 23//23 30//30 7//7
f 39//39 38//38 10//10
f 11//11 10//10 38//38
f 34//34 40//40 9//9
f 8//8 29//29 16//16
f 15//15 35//35 27//27
f 39//39 10//10 9//9
f 8//8 7//7 29//29
f 2//2 34//34 9//9
