# Blender v2.81 (sub 16) OBJ File: ''
# www.blender.org
mtllib sliderBody.mtl
o obj_0
v 10.000000 0.375750 0.999756
v 10.000000 -0.624250 0.999756
v 10.000000 -0.624250 -1.000244
v 10.000000 0.375750 -1.000244
v -10.000000 0.375750 -1.000244
v -10.000000 -0.624250 -1.000244
v -10.000000 -0.624250 0.999756
v -10.000000 0.375750 0.999756
v -9.002000 0.375750 -0.502243
v 9.002001 0.375750 -0.502243
v 9.002001 0.375750 0.502754
v -9.002000 0.375750 0.502754
v -9.002000 -0.127250 -0.502243
v 9.002001 -0.127250 -0.502243
v 9.002001 -0.127250 0.502754
v -9.002000 -0.127250 0.502754
vn 0.5773 0.5773 0.5773
vn 0.5773 -0.5773 0.5773
vn 0.5773 -0.5773 -0.5773
vn 0.5773 0.5773 -0.5773
vn -0.5773 0.5773 -0.5773
vn -0.5773 -0.5773 -0.5773
vn -0.5773 -0.5773 0.5773
vn -0.5773 0.5773 0.5773
vn 0.3015 0.9045 0.3015
vn -0.3015 0.9045 0.3015
vn -0.3015 0.9045 -0.3015
vn 0.3015 0.9045 -0.3015
usemtl color_16448250
s 1
f 1//1 2//2 3//3
f 1//1 3//3 4//4
f 5//5 6//6 7//7
f 5//5 7//7 8//8
f 9//9 10//10 4//4
f 11//11 1//1 10//10
f 4//4 10//10 1//1
f 2//2 7//7 3//3
f 2//2 8//8 7//7
f 6//6 3//3 7//7
f 1//1 8//8 2//2
f 3//3 6//6 4//4
f 5//5 4//4 6//6
f 8//8 1//1 12//12
f 11//11 12//12 1//1
f 9//9 13//1 14//8
f 9//9 14//8 10//10
f 5//5 8//8 9//9
f 4//4 5//5 9//9
f 12//12 9//9 8//8
f 11//11 15//5 16//4
f 11//11 16//4 12//12
f 16//4 15//5 14//8
f 16//4 14//8 13//1
f 13//1 9//9 12//12
f 13//1 12//12 16//4
f 15//5 11//11 10//10
f 15//5 10//10 14//8
